# xmcd
#
# Track frame offsets: 
#        150
#        11845
#        22872
#        33960
#        48570
#        60640
#        79242
#        89507
#        104795
#        116512
#        130330
#        144160
#        155390
#        170840
#        183830
#        196427
#        209525
#        218690
#
# Disc length: 3158 seconds
#
# Revision: 4
# Processed by: cddbd v1.5.2PL0 Copyright (c) Steve Scherf et al.
# Submitted via: ExactAudioCopy v0.99pb5
#
DISCID=fe0c5412
DTITLE=Marty Robbins - His Greatest Hits And Finest Performances - Dis
DTITLE=c 2
DYEAR=1983
DGENRE=Country
TTITLE0=Lovesick Blues
TTITLE1=The Red River Valley
TTITLE2=Love Is Blue (L'Amour Est Bleu)
TTITLE3=By The Time I Get To Phoenix
TTITLE4=Yesterday
TTITLE5=The Air That I Breathe
TTITLE6=Can't Help Falling In Love
TTITLE7=Try A Little Tenderness
TTITLE8=You Made Me Love You
TTITLE9=All The Way
TTITLE10=Love Me Tender
TTITLE11=It Had To Be You
TTITLE12=Misty
TTITLE13=Devil Woman
TTITLE14=Tonight Carmen
TTITLE15=Maria Elena
TTITLE16=Ruby Ann
TTITLE17=A Good Hearted Woman
EXTD=
EXTT0=
EXTT1=
EXTT2=
EXTT3=
EXTT4=
EXTT5=
EXTT6=
EXTT7=
EXTT8=
EXTT9=
EXTT10=
EXTT11=
EXTT12=
EXTT13=
EXTT14=
EXTT15=
EXTT16=
EXTT17=
PLAYORDER=
